<svg width="175" height="88" viewBox="0 0 175 88" fill="none" xmlns="http://www.w3.org/2000/svg">
<path d="M33.6585 55.8861H23.9512C23.5285 55.8861 23.1707 55.9607 22.878 56.1099C22.6179 56.2292 22.3902 56.4082 22.1951 56.6468C22 56.8855 21.8537 57.154 21.7561 57.4523C21.6585 57.7207 21.6098 57.9892 21.6098 58.2577C21.6098 58.8245 21.8049 59.3466 22.1951 59.8239C22.6179 60.2713 23.122 60.4951 23.7073 60.4951H29.1707C30.3089 60.4951 31.3008 60.6741 32.1463 61.032C33.0244 61.39 33.7398 61.8822 34.2927 62.5087C34.878 63.1351 35.3008 63.8809 35.561 64.746C35.8537 65.6112 36 66.5359 36 67.5204V67.6546C36 68.639 35.8211 69.534 35.4634 70.3394C35.1382 71.1449 34.6667 71.831 34.0488 72.3978C33.4309 72.9646 32.6992 73.4121 31.8537 73.7402C31.0081 74.0683 30.1138 74.2324 29.1707 74.2324H17.3659V69.8025H27.5122C28.2602 69.8025 28.9431 69.6086 29.561 69.2208C30.2114 68.8329 30.5528 68.2512 30.5854 67.4756V67.5204C30.5854 67.0729 30.4878 66.7 30.2927 66.4017C30.1301 66.1034 29.9024 65.8647 29.6098 65.6857C29.3171 65.4769 28.9919 65.3278 28.6341 65.2383C28.2764 65.1488 27.9024 65.104 27.5122 65.104H23.122C21.6911 65.104 20.5041 64.8952 19.561 64.4776C18.6504 64.0599 17.9187 63.523 17.3659 62.8667C16.8455 62.2104 16.4878 61.4646 16.2927 60.6293C16.0976 59.794 16 58.9438 16 58.0787C16 57.1838 16.1463 56.3187 16.439 55.4834C16.7317 54.6481 17.1545 53.9172 17.7073 53.2908C18.2927 52.6345 19.0081 52.1274 19.8537 51.7694C20.6992 51.4114 21.6585 51.2324 22.7317 51.2324H33.6585V55.8861Z" fill="#2D3142"/>
<path fill-rule="evenodd" clip-rule="evenodd" d="M131.266 24.3477C124.606 18.4203 116.907 15.8647 112.4 15.6757C124.948 13.457 133.077 15.4082 138.152 19.4834C140.336 18.4446 142.774 17.6985 145.465 17.3886C144.749 19.9491 143.656 22.2514 142.323 24.2981C146.982 32.0991 145.993 43.0138 143.752 50.4564C143.075 42.1593 140.394 35.5975 136.79 30.514C132.877 33.8213 128.562 35.8036 125.502 36.4932L126.173 34.7794L124.356 35.2822C125.286 32.228 127.584 27.9645 131.266 24.3477ZM123.999 36.7385L123.999 36.7381L123.999 36.7385L123.999 36.7385Z" fill="#E71D36"/>
<path d="M47.829 68.5874C48.6457 68.5874 49.299 68.4894 49.789 68.2934C50.3117 68.0974 50.72 67.8361 51.014 67.5094C51.3407 67.1828 51.5693 66.7908 51.7 66.3334C51.8307 65.8761 51.896 65.3861 51.896 64.8634V51.2324H57.629V74.1734H51.896V73.5364C51.3733 73.7651 50.8017 73.9284 50.181 74.0264C49.593 74.1244 48.956 74.1734 48.27 74.1734H45.771C44.301 74.1734 43.0107 73.9284 41.9 73.4384C40.822 72.9484 39.9237 72.3114 39.205 71.5274C38.4863 70.7108 37.931 69.7961 37.539 68.7834C37.1797 67.7381 37 66.6928 37 65.6474V51.2324H42.684V64.4714C42.684 65.0594 42.733 65.5984 42.831 66.0884C42.929 66.5784 43.125 67.0194 43.419 67.4114C43.713 67.7708 44.1213 68.0648 44.644 68.2934C45.1667 68.4894 45.869 68.5874 46.751 68.5874H47.829Z" fill="#2D3142"/>
<path d="M70.8009 51.2324C72.2382 51.2324 73.5122 51.4611 74.6229 51.9184C75.7662 52.3431 76.7299 52.9474 77.5139 53.7314C78.3306 54.5154 78.9512 55.4628 79.3759 56.5734C79.8006 57.6841 80.0129 58.9418 80.0129 60.3464L80.0129 65.0594C80.0129 66.4314 79.8006 67.6891 79.3759 68.8324C78.9512 69.9431 78.3306 70.9068 77.5139 71.7234C76.7299 72.5074 75.7662 73.1118 74.6229 73.5364C73.5122 73.9611 72.2382 74.1734 70.8009 74.1734H69.2329C67.7956 74.1734 66.4889 73.9448 65.3129 73.4874V83.1738H59.6289L59.6289 51.2324H70.8009ZM65.3129 56.8674V64.8634C65.3129 65.9414 65.6396 66.8234 66.2929 67.5094C66.9462 68.1954 67.7956 68.5384 68.8409 68.5384H70.8009C71.8462 68.5384 72.7119 68.1954 73.3979 67.5094C74.0839 66.8234 74.4269 65.9414 74.4269 64.8634L74.4269 60.4934C74.4269 59.4154 74.0839 58.5498 73.3979 57.8964C72.7119 57.2104 71.8462 56.8674 70.8009 56.8674H65.3129Z" fill="#2D3142"/>
<path d="M93.1849 51.291C94.6223 51.291 95.8963 51.5197 97.0069 51.977C98.1503 52.4017 99.1139 53.006 99.8979 53.79C100.715 54.574 101.335 55.5213 101.76 56.632C102.185 57.7427 102.397 59.0003 102.397 60.405V65.118C102.397 66.49 102.185 67.7477 101.76 68.891C101.335 70.0017 100.715 70.9653 99.8979 71.782C99.1139 72.566 98.1503 73.1703 97.0069 73.595C95.8963 74.0197 94.6223 74.232 93.1849 74.232H91.6169C90.1796 74.232 88.8729 74.0033 87.6969 73.546V83.2324H82.0129V51.291H93.1849ZM87.6969 56.926V64.922C87.6969 66 88.0236 66.882 88.6769 67.568C89.3303 68.254 90.1796 68.597 91.2249 68.597H93.1849C94.2303 68.597 95.0959 68.254 95.7819 67.568C96.4679 66.882 96.8109 66 96.8109 64.922V60.552C96.8109 59.474 96.4679 58.6083 95.7819 57.955C95.0959 57.269 94.2303 56.926 93.1849 56.926H87.6969Z" fill="#2D3142"/>
<path d="M115.569 51.2324C117.006 51.2324 118.28 51.4611 119.391 51.9184C120.534 52.3431 121.498 52.9474 122.282 53.7314C123.099 54.5154 123.719 55.4628 124.144 56.5734C124.569 57.6841 124.781 58.9418 124.781 60.3464V65.0594C124.781 66.4314 124.569 67.6891 124.144 68.8324C123.719 69.9431 123.099 70.9068 122.282 71.7234C121.498 72.5074 120.534 73.1118 119.391 73.5364C118.28 73.9611 117.006 74.1734 115.569 74.1734H113.56C112.155 74.1734 110.881 73.9611 109.738 73.5364C108.595 73.1118 107.615 72.5074 106.798 71.7234C106.014 70.9068 105.41 69.9431 104.985 68.8324C104.593 67.6891 104.397 66.4314 104.397 65.0594V60.3464C104.397 58.9418 104.593 57.6841 104.985 56.5734C105.41 55.4628 106.014 54.5154 106.798 53.7314C107.615 52.9474 108.595 52.3431 109.738 51.9184C110.881 51.4611 112.155 51.2324 113.56 51.2324H115.569ZM113.56 56.8674C112.547 56.8674 111.682 57.2104 110.963 57.8964C110.277 58.5498 109.934 59.4154 109.934 60.4934V64.8634C109.934 65.9414 110.277 66.8234 110.963 67.5094C111.682 68.1954 112.547 68.5384 113.56 68.5384H115.569C116.614 68.5384 117.464 68.1954 118.117 67.5094C118.803 66.8234 119.146 65.9414 119.146 64.8634V60.4934C119.146 59.4154 118.803 58.5498 118.117 57.8964C117.464 57.2104 116.614 56.8674 115.569 56.8674H113.56Z" fill="#2D3142"/>
<path d="M132.857 55.8384C133.314 55.0871 133.919 54.4338 134.67 53.8784C135.454 53.2904 136.303 52.8004 137.218 52.4084C138.165 52.0164 139.162 51.7224 140.207 51.5264C141.252 51.3304 142.298 51.2324 143.343 51.2324H143.98V57.3084H143.343C142.167 57.3084 140.958 57.5534 139.717 58.0434C138.476 58.5008 137.332 59.1214 136.287 59.9054C135.274 60.6568 134.441 61.5061 133.788 62.4534C133.167 63.4008 132.857 64.3481 132.857 65.2954V74.2327H126.781V51.0957H132.857V55.8384Z" fill="#2D3142"/>
<path d="M145.98 51.2324H150.586V42.6016H156.368V51.2324H160.974V57.2324H156.368V74.2324H150.586V57.2324H145.98V51.2324Z" fill="#2D3142"/>
<path d="M33.6585 28.8861H23.9512C23.5285 28.8861 23.1707 28.9607 22.878 29.1099C22.6179 29.2292 22.3902 29.4082 22.1951 29.6468C22 29.8855 21.8537 30.154 21.7561 30.4523C21.6585 30.7207 21.6098 30.9892 21.6098 31.2577C21.6098 31.8245 21.8049 32.3466 22.1951 32.8239C22.6179 33.2713 23.122 33.4951 23.7073 33.4951H29.1707C30.3089 33.4951 31.3008 33.6741 32.1463 34.032C33.0244 34.39 33.7398 34.8822 34.2927 35.5087C34.878 36.1351 35.3008 36.8809 35.561 37.746C35.8537 38.6112 36 39.5359 36 40.5204V40.6546C36 41.639 35.8211 42.534 35.4634 43.3394C35.1382 44.1449 34.6667 44.831 34.0488 45.3978C33.4309 45.9646 32.6992 46.4121 31.8537 46.7402C31.0081 47.0683 30.1138 47.2324 29.1707 47.2324H17.3659V42.8025H27.5122C28.2602 42.8025 28.9431 42.6086 29.561 42.2208C30.2114 41.8329 30.5528 41.2512 30.5854 40.4756V40.5204C30.5854 40.0729 30.4878 39.7 30.2927 39.4017C30.1301 39.1034 29.9024 38.8647 29.6098 38.6857C29.3171 38.4769 28.9919 38.3278 28.6341 38.2383C28.2764 38.1488 27.9024 38.104 27.5122 38.104H23.122C21.6911 38.104 20.5041 37.8952 19.561 37.4776C18.6504 37.0599 17.9187 36.523 17.3659 35.8667C16.8455 35.2104 16.4878 34.4646 16.2927 33.6293C16.0976 32.794 16 31.9438 16 31.0787C16 30.1838 16.1463 29.3187 16.439 28.4834C16.7317 27.6481 17.1545 26.9172 17.7073 26.2908C18.2927 25.6345 19.0081 25.1274 19.8537 24.7694C20.6992 24.4114 21.6585 24.2324 22.7317 24.2324H33.6585V28.8861Z" fill="#2D3142"/>
<path d="M63.7569 47.2324H58.2639L53.5486 32.7275L48.9306 47.2324H43.4861L36 24.2324H41.3958L46.1597 38.8277L50.7778 24.2324H56.2222L60.9375 38.7373L65.6042 24.2324H71L63.7569 47.2324Z" fill="#2D3142"/>
<path d="M79 47.2324H73V24.2324H79V47.2324Z" fill="#2D3142"/>
<rect x="76" y="22.4746" width="6" height="6" transform="rotate(-135 76 22.4746)" fill="#E71D36"/>
<path d="M96.2292 19.4754H94.4652C93.3545 19.4754 92.4562 19.8184 91.7702 20.5044C91.0842 21.1904 90.7412 22.0724 90.7412 23.1504V24.2284H96.2292V30.2324H90.7412V47.2324H85.5962V30.2324H81.1372L81.1372 24.2284H85.5962V23.3954C85.5962 21.9908 85.7922 20.7331 86.1842 19.6224C86.5762 18.4791 87.1479 17.5154 87.8992 16.7314C88.6832 15.9474 89.6142 15.3431 90.6922 14.9184C91.8029 14.4611 93.0605 14.2324 94.4652 14.2324H96.2292V19.4754Z" fill="#2D3142"/>
<path d="M98.5 24.2324H103.106V15.6016H108.888V24.2324H113.494V30.2324H108.888V47.2324H103.106V30.2324H98.5V24.2324Z" fill="#2D3142"/>
</svg>
